solid OpenSCAD_Model
  facet normal -1 0 0
    outer loop
      vertex 0 0 0
      vertex 0 6 2
      vertex 0 6 0
    endloop
  endfacet
  facet normal -1 -0 0
    outer loop
      vertex 0 6 2
      vertex 0 0 0
      vertex 0 0 2
    endloop
  endfacet
  facet normal -0 0 1
    outer loop
      vertex 0 6 2
      vertex 15 0 2
      vertex 15 6 2
    endloop
  endfacet
  facet normal 0 0 1
    outer loop
      vertex 15 0 2
      vertex 0 6 2
      vertex 0 0 2
    endloop
  endfacet
  facet normal 0 1 0
    outer loop
      vertex 21 6 4.5
      vertex 15 6 2
      vertex 15 6 4.5
    endloop
  endfacet
  facet normal 0 1 -0
    outer loop
      vertex 21 6 0
      vertex 15 6 2
      vertex 21 6 4.5
    endloop
  endfacet
  facet normal 0 1 0
    outer loop
      vertex 0 6 0
      vertex 15 6 2
      vertex 21 6 0
    endloop
  endfacet
  facet normal 0 1 0
    outer loop
      vertex 15 6 2
      vertex 0 6 0
      vertex 0 6 2
    endloop
  endfacet
  facet normal 0 0 -1
    outer loop
      vertex 0 0 0
      vertex 21 6 0
      vertex 21 0 0
    endloop
  endfacet
  facet normal -0 0 -1
    outer loop
      vertex 21 6 0
      vertex 0 0 0
      vertex 0 6 0
    endloop
  endfacet
  facet normal 0 -1 0
    outer loop
      vertex 0 0 2
      vertex 0 0 0
      vertex 15 0 2
    endloop
  endfacet
  facet normal 0 -1 0
    outer loop
      vertex 15 0 2
      vertex 21 0 4.5
      vertex 15 0 4.5
    endloop
  endfacet
  facet normal 0 -1 0
    outer loop
      vertex 15 0 2
      vertex 21 0 0
      vertex 21 0 4.5
    endloop
  endfacet
  facet normal 0 -1 0
    outer loop
      vertex 21 0 0
      vertex 15 0 2
      vertex 0 0 0
    endloop
  endfacet
  facet normal -1 0 0
    outer loop
      vertex 15 0 2
      vertex 15 6 4.5
      vertex 15 6 2
    endloop
  endfacet
  facet normal -1 -0 0
    outer loop
      vertex 15 6 4.5
      vertex 15 0 2
      vertex 15 0 4.5
    endloop
  endfacet
  facet normal -0 0 1
    outer loop
      vertex 15 6 4.5
      vertex 21 0 4.5
      vertex 21 6 4.5
    endloop
  endfacet
  facet normal 0 0 1
    outer loop
      vertex 21 0 4.5
      vertex 15 6 4.5
      vertex 15 0 4.5
    endloop
  endfacet
  facet normal 1 -0 0
    outer loop
      vertex 21 0 4.5
      vertex 21 6 0
      vertex 21 6 4.5
    endloop
  endfacet
  facet normal 1 0 0
    outer loop
      vertex 21 6 0
      vertex 21 0 4.5
      vertex 21 0 0
    endloop
  endfacet
endsolid OpenSCAD_Model
